<?xml version="1.0" encoding="UTF-8" standalone="no"?>
<svg viewBox="0 0 50 50"
 xmlns="http://www.w3.org/2000/svg" xmlns:xlink="http://www.w3.org/1999/xlink" version="1.2" baseProfile="tiny">
<title>Qt SVG Document</title>
<desc>Generated with Qt</desc>
<defs>
</defs>
<g fill="none" stroke="black" stroke-width="1" fill-rule="evenodd" stroke-linecap="square" stroke-linejoin="bevel" >

<g fill="#000000" fill-opacity="1" stroke="none" transform="matrix(4.97306,0,0,5.90551,-2.63158,179.688)"
font-family="Segoe UI" font-size="10" font-weight="400" font-style="normal" 
opacity="0.003" >
<rect x="0.529168" y="-30.4271" width="10.0542" height="8.46667"/>
</g>

<g fill="#ffffff" fill-opacity="1" stroke="none" transform="matrix(4.97306,0,0,5.90551,-2.63158,179.688)"
font-family="Segoe UI" font-size="10" font-weight="400" font-style="normal" 
opacity="0.25" >
<path vector-effect="none" fill-rule="evenodd" d="M0.986175,-28.6128 C0.986175,-29.2808 1.39232,-29.8223 1.89332,-29.8223 L9.21918,-29.8223 C9.72019,-29.8223 10.1263,-29.2808 10.1263,-28.6128 L10.1263,-23.7747 C10.1263,-23.1067 9.72019,-22.5652 9.21918,-22.5652 L1.89332,-22.5652 C1.39232,-22.5652 0.986175,-23.1067 0.986175,-23.7747 L0.986175,-28.6128"/>
</g>

<g fill="#000000" fill-opacity="1" stroke="none" transform="matrix(4.29492,0,0,6.74916,-105.682,175)"
font-family="Segoe UI" font-size="10" font-weight="400" font-style="normal" 
opacity="0.003" >
<rect x="27.5167" y="-25.1354" width="5.82083" height="5.82083"/>
</g>

<g fill="#ffffff" fill-opacity="1" stroke="none" transform="matrix(4.29492,0,0,6.74916,-105.682,175)"
font-family="Segoe UI" font-size="10" font-weight="400" font-style="normal" 
>
<path vector-effect="none" fill-rule="nonzero" d="M30.1625,-23.5479 C29.9664,-23.5479 29.7976,-23.441 29.7062,-23.2833 L30.9563,-23.2833 C31.2494,-23.2833 31.4854,-23.0473 31.4854,-22.7542 L31.4854,-21.5041 C31.6431,-21.5955 31.75,-21.7643 31.75,-21.9604 L31.75,-22.7542 C31.75,-23.1939 31.396,-23.5479 30.9563,-23.5479 L30.1625,-23.5479 M29.6333,-23.0188 C29.3402,-23.0188 29.1042,-22.7827 29.1042,-22.4896 L29.1042,-21.4313 C29.1042,-21.1381 29.3402,-20.9021 29.6333,-20.9021 L30.6917,-20.9021 C30.9848,-20.9021 31.2208,-21.1381 31.2208,-21.4313 L31.2208,-22.4896 C31.2208,-22.7827 30.9848,-23.0188 30.6917,-23.0188 L29.6333,-23.0188 M29.6333,-22.7542 L30.6917,-22.7542 C30.8382,-22.7542 30.9563,-22.6362 30.9563,-22.4896 L30.9563,-21.4313 C30.9563,-21.2847 30.8382,-21.1667 30.6917,-21.1667 L29.6333,-21.1667 C29.4868,-21.1667 29.3688,-21.2847 29.3688,-21.4313 L29.3688,-22.4896 C29.3688,-22.6362 29.4868,-22.7542 29.6333,-22.7542 "/>
</g>

<g fill="none" stroke="#000000" stroke-opacity="1" stroke-width="1" stroke-linecap="square" stroke-linejoin="bevel" transform="matrix(1,0,0,1,0,0)"
font-family="Segoe UI" font-size="10" font-weight="400" font-style="normal" 
>
</g>
</g>
</svg>
