<?xml version="1.0" encoding="UTF-8" standalone="no"?>
<svg viewBox="0 0 50 50"
 xmlns="http://www.w3.org/2000/svg" xmlns:xlink="http://www.w3.org/1999/xlink" version="1.2" baseProfile="tiny">
<title>Qt SVG Document</title>
<desc>Generated with Qt</desc>
<defs>
</defs>
<g fill="none" stroke="black" stroke-width="1" fill-rule="evenodd" stroke-linecap="square" stroke-linejoin="bevel" >

<g fill="#000000" fill-opacity="1" stroke="none" transform="matrix(4.97306,0,0,5.90551,-2.63158,117.188)"
font-family="Segoe UI" font-size="10" font-weight="400" font-style="normal" 
opacity="0.003" >
<rect x="0.529168" y="-19.8438" width="10.0542" height="8.46667"/>
</g>

<g fill="#ffffff" fill-opacity="1" stroke="none" transform="matrix(4.97306,0,0,5.90551,-2.63158,117.188)"
font-family="Segoe UI" font-size="10" font-weight="400" font-style="normal" 
opacity="0.1" >
<path vector-effect="none" fill-rule="evenodd" d="M0.986175,-18.0295 C0.986175,-18.6975 1.39232,-19.239 1.89332,-19.239 L9.21918,-19.239 C9.72019,-19.239 10.1263,-18.6975 10.1263,-18.0295 L10.1263,-13.1914 C10.1263,-12.5234 9.72019,-11.9818 9.21918,-11.9818 L1.89332,-11.9818 C1.39232,-11.9818 0.986175,-12.5234 0.986175,-13.1914 L0.986175,-18.0295"/>
</g>

<g fill="#000000" fill-opacity="1" stroke="none" transform="matrix(4.29492,0,0,6.74916,-105.682,175)"
font-family="Segoe UI" font-size="10" font-weight="400" font-style="normal" 
opacity="0.003" >
<rect x="27.5167" y="-25.1354" width="5.82083" height="5.82083"/>
</g>

<g fill="#ffffff" fill-opacity="1" stroke="none" transform="matrix(4.29492,0,0,6.74916,-105.682,175)"
font-family="Segoe UI" font-size="10" font-weight="400" font-style="normal" 
>
<path vector-effect="none" fill-rule="evenodd" d="M29.1042,-22.0927 C29.1042,-22.1658 29.1634,-22.225 29.2365,-22.225 L31.6177,-22.225 C31.6908,-22.225 31.75,-22.1658 31.75,-22.0927 C31.75,-22.0196 31.6908,-21.9604 31.6177,-21.9604 L29.2365,-21.9604 C29.1634,-21.9604 29.1042,-22.0196 29.1042,-22.0927 "/>
</g>

<g fill="none" stroke="#000000" stroke-opacity="1" stroke-width="1" stroke-linecap="square" stroke-linejoin="bevel" transform="matrix(1,0,0,1,0,0)"
font-family="Segoe UI" font-size="10" font-weight="400" font-style="normal" 
>
</g>
</g>
</svg>
