<?xml version="1.0" encoding="UTF-8" standalone="no"?>
<svg viewBox="0 0 50 50"
 xmlns="http://www.w3.org/2000/svg" xmlns:xlink="http://www.w3.org/1999/xlink" version="1.2" baseProfile="tiny">
<title>Qt SVG Document</title>
<desc>Generated with Qt</desc>
<defs>
</defs>
<g fill="none" stroke="black" stroke-width="1" fill-rule="evenodd" stroke-linecap="square" stroke-linejoin="bevel" >

<g fill="#000000" fill-opacity="1" stroke="none" transform="matrix(4.97306,0,0,5.90551,-2.63158,179.688)"
font-family="Segoe UI" font-size="10" font-weight="400" font-style="normal" 
opacity="0.003" >
<rect x="0.529168" y="-30.4271" width="10.0542" height="8.46667"/>
</g>

<g fill="#ffffff" fill-opacity="1" stroke="none" transform="matrix(4.97306,0,0,5.90551,-2.63158,179.688)"
font-family="Segoe UI" font-size="10" font-weight="400" font-style="normal" 
opacity="0.25" >
<path vector-effect="none" fill-rule="evenodd" d="M0.986175,-28.6128 C0.986175,-29.2808 1.39539,-29.8223 1.90019,-29.8223 L9.21231,-29.8223 C9.71711,-29.8223 10.1263,-29.2808 10.1263,-28.6128 L10.1263,-23.7747 C10.1263,-23.1067 9.71711,-22.5652 9.21231,-22.5652 L1.90019,-22.5652 C1.39539,-22.5652 0.986175,-23.1067 0.986175,-23.7747 L0.986175,-28.6128"/>
</g>

<g fill="#000000" fill-opacity="1" stroke="none" transform="matrix(4.29492,0,0,6.74916,-105.682,175)"
font-family="Segoe UI" font-size="10" font-weight="400" font-style="normal" 
opacity="0.003" >
<rect x="27.5167" y="-25.1354" width="5.82083" height="5.82083"/>
</g>

<g fill="#ffffff" fill-opacity="1" stroke="none" transform="matrix(4.29492,0,0,6.74916,-105.682,175)"
font-family="Segoe UI" font-size="10" font-weight="400" font-style="normal" 
>
<path vector-effect="none" fill-rule="evenodd" d="M29.1042,-22.0927 C29.1042,-22.1658 29.1634,-22.225 29.2365,-22.225 L31.6177,-22.225 C31.6908,-22.225 31.75,-22.1658 31.75,-22.0927 C31.75,-22.0196 31.6908,-21.9604 31.6177,-21.9604 L29.2365,-21.9604 C29.1634,-21.9604 29.1042,-22.0196 29.1042,-22.0927 "/>
</g>

<g fill="none" stroke="#000000" stroke-opacity="1" stroke-width="1" stroke-linecap="square" stroke-linejoin="bevel" transform="matrix(1,0,0,1,0,0)"
font-family="Segoe UI" font-size="10" font-weight="400" font-style="normal" 
>
</g>
</g>
</svg>
